<?xml version="1.0" encoding="UTF-8"?>
<!DOCTYPE svg PUBLIC "-//W3C//DTD SVG 1.1//EN" "http://www.w3.org/Graphics/SVG/1.1/DTD/svg11.dtd">
<!-- Creator: CorelDRAW 2020 (64 Bit) -->
<svg xmlns="http://www.w3.org/2000/svg" xml:space="preserve" width="215.9mm" height="279.4mm" version="1.1" style="shape-rendering:geometricPrecision; text-rendering:geometricPrecision; image-rendering:optimizeQuality; fill-rule:evenodd; clip-rule:evenodd"
viewBox="0 0 21590 27940"
 xmlns:xlink="http://www.w3.org/1999/xlink"
 xmlns:xodm="http://www.corel.com/coreldraw/odm/2003">
 <defs>
  <style type="text/css">
   <![CDATA[
    .fil0 {fill:#A9ABAE;fill-rule:nonzero}
   ]]>
  </style>
 </defs>
 <g id="Camada_x0020_1">
  <metadata id="CorelCorpID_0Corel-Layer"/>
  <g id="_2788414465280">
   <g>
    <path class="fil0" d="M10795 3175c-198.72,0 -359.83,161.12 -359.83,359.83l0 2159c0,198.72 161.12,359.83 359.83,359.83 198.71,0 359.83,-161.12 359.83,-359.83l0 -2159c0,-198.71 -161.11,-359.83 -359.83,-359.83z"/>
   </g>
  </g>
  <g id="_2788414466096">
   <g>
    <path class="fil0" d="M9399.93 3985.34l-62.61 -354.44c-34.5,-195.75 -221.12,-326.5 -416.87,-292 -195.75,34.5 -326.5,221.12 -292,416.87l62.61 354.44c30.36,171.82 179.6,297.09 354.08,297.22 21.01,-0.04 41.92,-1.84 62.61,-5.4 0,0 0.04,0 0.04,0 195.75,-34.41 326.55,-220.94 292.14,-416.69z"/>
   </g>
  </g>
  <g id="_2788414466144">
   <g>
    <g>
     <polygon class="fil0" points="7348.88,4862.26 7348.88,4862.26 "/>
     <path class="fil0" d="M7687.12 4379.36l-123.06 -338.24c-1.53,-4.41 -3.1,-8.77 -4.77,-13.13 -71.61,-185.4 -279.91,-277.66 -465.31,-206.05 -185.4,71.61 -277.66,279.91 -206.05,465.31l122.7 337.88c51.64,142.31 186.84,237.13 338.24,237.13 42.01,0 83.71,-7.33 123.15,-21.68 186.76,-67.96 283.06,-274.46 215.1,-461.22z"/>
    </g>
   </g>
  </g>
  <g id="_2788414495088">
   <g>
    <path class="fil0" d="M4593.63 6020.56l-231.37 -275.63c-127.02,-145.15 -345.89,-164.35 -496.21,-43.49 -154.91,124.5 -179.56,350.97 -55.05,505.88l231.37 275.63c68.32,81.59 169.21,128.73 275.63,128.82 84.65,0 166.6,-29.82 231.42,-84.25 152.21,-127.78 172,-354.75 44.21,-506.96z"/>
   </g>
  </g>
  <g id="_2788414496816">
   <g>
    <path class="fil0" d="M3307.95 7217.37l-275.63 -231.37c-150.32,-120.81 -369.19,-101.65 -496.21,43.49 -130.89,149.56 -115.73,376.88 33.82,507.77l275.63 231.37c64.73,54.33 146.5,84.11 231.01,84.2 106.38,0 207.31,-47.05 275.68,-128.51 127.79,-152.25 107.91,-379.21 -44.3,-506.95z"/>
   </g>
  </g>
  <g id="_2788414496720">
   <g>
    <path class="fil0" d="M1450.13 10185.63l-337.88 -122.7c-4.32,-1.66 -8.73,-3.28 -13.13,-4.77 -188.01,-64.37 -392.62,35.94 -456.94,223.95 -64.37,188.01 35.94,392.62 223.95,456.94l338.24 123.06c39.31,14.44 80.83,21.86 122.7,21.95 152.25,0.54 288.36,-94.77 339.91,-238.07 67.24,-186.97 -29.83,-393.11 -216.85,-460.36z"/>
   </g>
  </g>
  <g id="_2788414495664">
   <g>
    <path class="fil0" d="M935.21 11866.05l-354.44 -62.61c-195.75,-34.5 -382.37,96.26 -416.87,292 -34.5,195.75 96.26,382.37 292,416.87l354.44 62.61c20.69,3.55 41.61,5.35 62.61,5.4 174.83,0.09 324.43,-125.54 354.62,-297.76 34.28,-195.75 -96.61,-382.23 -292.36,-416.51z"/>
   </g>
  </g>
  <g id="_2788414496000">
   <g>
    <path class="fil0" d="M1227.21 15657.08c-34.5,-195.75 -221.12,-326.5 -416.87,-292l-354.44 62.61c-172.09,30.14 -297.63,179.56 -297.76,354.26 -0.09,198.72 160.89,359.92 359.65,360.01 21.1,-0.04 42.19,-1.84 62.97,-5.4l354.44 -62.61c195.76,-34.5 326.51,-221.12 292.01,-416.87z"/>
   </g>
  </g>
  <g id="_2788414493696">
   <g>
    <path class="fil0" d="M1665.49 17293.24c-67.87,-186.8 -274.33,-283.23 -461.13,-215.36l-338.24 123.06c-142.4,51.68 -237.18,187.02 -237.09,338.56 0.18,198.72 161.39,359.7 360.15,359.52 41.97,-0.09 83.62,-7.51 123.06,-21.95l337.88 -122.7c186.81,-67.88 283.24,-274.33 215.37,-461.13z"/>
   </g>
  </g>
  <g id="_2788414492880">
   <g>
    <path class="fil0" d="M3353.33 20204.47c-130.84,-149.56 -358.21,-164.71 -507.77,-33.87l-275.63 231.42c-81.5,68.37 -128.55,169.3 -128.51,275.68 0.04,198.72 161.16,359.79 359.88,359.79 84.52,-0.09 166.29,-29.87 231.01,-84.2l275.63 -231.37c3.91,-3.15 7.74,-6.34 11.51,-9.67 149.57,-130.85 164.73,-358.18 33.88,-507.78z"/>
   </g>
  </g>
  <g id="_2788414492112">
   <g>
    <path class="fil0" d="M4548.97 21402c-154.91,-124.5 -381.38,-99.85 -505.88,55.05l-231.37 275.63c-54.15,64.68 -83.89,146.36 -83.93,230.74 -0.13,198.72 160.85,359.97 359.56,360.1 106.33,0 207.26,-47 275.63,-128.46l231.37 -275.63c3.33,-3.78 6.52,-7.65 9.67,-11.56 124.5,-154.85 99.86,-381.37 -55.05,-505.87z"/>
   </g>
  </g>
  <g id="_2788414494896">
   <g>
    <path class="fil0" d="M7471.76 23099.51c-186.8,-67.87 -393.25,28.56 -461.13,215.36l-122.7 337.88c-14.35,39.49 -21.72,81.14 -21.68,123.15 0.04,198.72 161.21,359.79 359.92,359.74 151.17,-0.09 286.16,-94.73 337.88,-236.77l123.06 -338.24c67.88,-186.79 -28.55,-393.25 -215.35,-461.12z"/>
   </g>
  </g>
  <g id="_2788414492208">
   <g>
    <path class="fil0" d="M9107.92 23537.79c-195.75,-34.5 -382.37,96.26 -416.87,292l-62.61 354.44c0,0 0,0.04 0,0.04 -34.36,195.75 96.44,382.28 292.18,416.64 20.65,3.87 41.61,5.76 62.61,5.76 174.61,-0.18 323.85,-125.63 354.08,-297.58l62.61 -354.44c34.51,-195.74 -96.25,-382.36 -292,-416.86z"/>
   </g>
  </g>
  <g id="_2788414494800">
   <g>
    <path class="fil0" d="M12961.56 24184.23l-62.61 -354.44c-34.5,-195.75 -221.12,-326.5 -416.87,-292 -195.75,34.5 -326.5,221.12 -292,416.87l62.61 354.44c30.23,171.96 179.47,297.4 354.08,297.58 21.01,0 41.97,-1.89 62.61,-5.76 0,0 0.04,0 0.04,0 195.75,-34.41 326.55,-220.94 292.14,-416.69z"/>
   </g>
  </g>
  <g id="_2788414494080">
   <g>
    <path class="fil0" d="M14702.07 23652.76l-122.7 -337.88c-67.87,-186.8 -274.33,-283.23 -461.13,-215.36 -186.8,67.87 -283.23,274.33 -215.36,461.13l123.06 338.24c51.73,142.09 186.71,236.68 337.88,236.77l0.01 -0.01c42.01,0 83.71,-7.33 123.15,-21.68 186.75,-67.96 283.05,-274.46 215.09,-461.21z"/>
   </g>
  </g>
  <g id="_2788414492352">
   <g>
    <path class="fil0" d="M17778.29 21732.68l-231.37 -275.63c-3.15,-3.91 -6.34,-7.74 -9.67,-11.51 -130.84,-149.56 -358.21,-164.71 -507.77,-33.87 -149.56,130.84 -164.71,358.21 -33.82,507.77l231.37 275.63c68.14,81.73 169.21,128.82 275.63,128.46l-0.01 0c84.38,-0.04 166.06,-29.78 230.74,-83.93 152.4,-127.61 172.5,-354.57 44.9,-506.92z"/>
   </g>
  </g>
  <g id="_2788414494224">
   <g>
    <path class="fil0" d="M19020.07 20402.02l-275.63 -231.37c-3.78,-3.28 -7.6,-6.52 -11.51,-9.67 -154.91,-124.5 -381.38,-99.85 -505.88,55.05 -124.5,154.91 -99.85,381.38 55.05,505.88l275.63 231.37c64.73,54.33 146.5,84.11 231.01,84.2l0 0c106.38,0 207.31,-47.05 275.68,-128.51 127.74,-152.24 107.86,-379.21 -44.35,-506.95z"/>
   </g>
  </g>
  <g id="_2788414693376">
   <g>
    <path class="fil0" d="M20723.88 17200.94l-338.24 -123.06c-186.8,-67.87 -393.25,28.56 -461.13,215.36 -67.87,186.8 28.56,393.25 215.36,461.13l337.88 122.7c39.45,14.44 81.05,21.86 123.06,21.95l0 0c151.49,0.13 286.83,-94.64 338.56,-237.09 67.79,-186.79 -28.69,-393.2 -215.49,-460.99z"/>
   </g>
  </g>
  <g id="_2788414695008">
   <g>
    <path class="fil0" d="M21134.09 15427.68l-354.44 -62.61c-195.75,-34.5 -382.37,96.26 -416.87,292 -34.5,195.75 96.26,382.37 292,416.87l354.44 62.61c20.78,3.55 41.88,5.35 62.97,5.4 174.7,-0.09 324.07,-125.67 354.26,-297.76 34.28,-195.75 -96.61,-382.23 -292.36,-416.51z"/>
   </g>
  </g>
  <g id="_2788414689296">
   <g>
    <path class="fil0" d="M21426.1 12095.45c-34.5,-195.75 -221.12,-326.5 -416.87,-292l-354.44 62.61c-172.23,30.18 -297.81,179.78 -297.76,354.62 0.09,198.72 161.25,359.74 360.01,359.65 21.01,-0.04 41.92,-1.84 62.61,-5.4l354.44 -62.61c195.75,-34.5 326.5,-221.12 292.01,-416.87z"/>
   </g>
  </g>
  <g id="_2788414691120">
   <g>
    <path class="fil0" d="M20943.06 10268.98c-71.56,-185.4 -279.91,-277.66 -465.31,-206.05l-337.88 122.7c-143.26,51.5 -238.61,187.65 -238.07,339.91 0.72,198.72 162.42,359.25 361.14,358.53 41.88,-0.09 83.39,-7.51 122.7,-21.95l338.24 -123.06c4.41,-1.48 8.77,-3.1 13.09,-4.77 185.4,-71.61 277.66,-279.91 206.09,-465.31z"/>
   </g>
  </g>
  <g id="_2788414690592">
   <g>
    <path class="fil0" d="M19063.57 7041.05c-124.5,-154.91 -350.97,-179.56 -505.88,-55.05l-275.63 231.37c-81.5,68.37 -128.55,169.3 -128.51,275.68 0.04,198.72 161.16,359.79 359.88,359.79 84.52,-0.09 166.29,-29.87 231.01,-84.2l275.63 -231.37c145.15,-127.03 164.35,-345.9 43.5,-496.22z"/>
   </g>
  </g>
  <g id="_2788414690544">
   <g>
    <path class="fil0" d="M17735.51 5711.11c-149.56,-130.84 -376.88,-115.73 -507.77,33.82l-231.37 275.63c-54.42,64.81 -84.25,146.77 -84.25,231.42 0.04,198.72 161.16,359.83 359.88,359.79 106.42,-0.09 207.31,-47.23 275.63,-128.82l231.37 -275.63c120.86,-150.32 101.66,-369.24 -43.49,-496.21z"/>
   </g>
  </g>
  <g id="_2788414686512">
   <g>
    <path class="fil0" d="M14482.93 3817.21c-188.01,-64.37 -392.62,35.89 -456.94,223.91l-123.06 338.24c-14.35,39.49 -21.72,81.14 -21.68,123.15 0.04,198.72 161.21,359.79 359.92,359.74 151.4,0 286.61,-94.82 338.24,-237.13l122.7 -337.88c1.66,-4.32 3.24,-8.68 4.77,-13.09 64.32,-188.01 -35.94,-392.62 -223.95,-456.94z"/>
   </g>
  </g>
  <g id="_2788414686464">
   <g>
    <path class="fil0" d="M12669.55 3338.9c-195.75,-34.5 -382.37,96.26 -416.87,292l-62.61 354.44c0,0 0,0.04 0,0.04 -34.36,195.75 96.44,382.28 292.18,416.64 20.69,3.55 41.61,5.35 62.61,5.4 174.47,-0.13 323.72,-125.4 354.08,-297.22l62.61 -354.44c34.51,-195.74 -96.25,-382.36 -292,-416.86z"/>
   </g>
  </g>
  <g id="_2788414686368">
   <g>
    <path class="fil0" d="M6608.34 5999.33l-719.67 -1246.46c-99.58,-169.84 -317.15,-228.13 -488.29,-130.84 -172.76,98.23 -233.17,317.91 -134.94,490.68l719.67 1246.46c64.32,111.46 183.29,180.05 311.98,179.92 63.06,-0.04 124.95,-16.69 179.56,-48.22 172.08,-99.36 231.05,-319.45 131.69,-491.54z"/>
   </g>
  </g>
  <g id="_2788414684640">
   <g>
    <path class="fil0" d="M3183.81 9160.47l-1246.46 -719.67c-171.15,-97.29 -388.71,-39 -488.29,130.84 -100.48,171.46 -43,391.9 128.46,492.39l1246.46 719.67c54.69,31.57 116.76,48.22 179.91,48.22 128.55,0 247.34,-68.59 311.62,-179.92 99.35,-172.09 40.39,-392.17 -131.7,-491.53z"/>
   </g>
  </g>
  <g id="_2788414685840">
   <g>
    <path class="fil0" d="M3317.12 18284.67c-100.53,-171.42 -320.97,-228.9 -492.43,-128.37l-1246.46 719.67c-111.32,64.28 -179.92,183.07 -179.92,311.62 0,198.72 161.07,359.83 359.83,359.83 63.2,0.13 125.27,-16.51 179.92,-48.22l1246.46 -719.67c1.39,-0.81 2.79,-1.62 4.18,-2.43 171.47,-100.52 228.95,-320.97 128.42,-492.43z"/>
   </g>
  </g>
  <g id="_2788414683488">
   <g>
    <path class="fil0" d="M6476.51 21445.9c-172.76,-98.23 -392.44,-37.83 -490.68,134.94l-719.67 1246.46c-31.53,54.6 -48.13,116.5 -48.22,179.56 -0.22,198.72 160.71,360.01 359.47,360.19 128.69,0.13 247.66,-68.46 311.98,-179.92l719.67 -1246.46c0.81,-1.35 1.57,-2.74 2.38,-4.14 98.24,-172.72 37.79,-392.4 -134.93,-490.63z"/>
   </g>
  </g>
  <g id="_2788414685120">
   <g>
    <path class="fil0" d="M16323.84 22827.3l-719.67 -1246.46c-99.58,-169.8 -317.1,-228.09 -488.2,-130.8 -172.76,98.19 -233.22,317.87 -135.03,490.63l719.67 1246.46c64.32,111.46 183.29,180.05 311.98,179.92 63.02,-0.04 124.95,-16.69 179.56,-48.22 172.08,-99.36 231.05,-319.44 131.69,-491.53z"/>
   </g>
  </g>
  <g id="_2788414682528">
   <g>
    <path class="fil0" d="M20011.77 18875.97l-1246.46 -719.67c-171.15,-97.29 -388.66,-39 -488.2,130.8 -100.53,171.42 -43.05,391.9 128.37,492.43l1246.46 719.67c54.65,31.71 116.72,48.35 179.92,48.22 128.55,0 247.34,-68.59 311.62,-179.92 99.35,-172.09 40.38,-392.17 -131.71,-491.53z"/>
   </g>
  </g>
  <g id="_2788414682576">
   <g>
    <path class="fil0" d="M20143.34 8575.74c-98.23,-172.76 -317.91,-233.17 -490.68,-134.94l-1246.46 719.67c-111.32,64.28 -179.92,183.07 -179.92,311.62 0,198.72 161.07,359.83 359.83,359.83 63.15,0 125.22,-16.64 179.92,-48.22l1246.46 -719.67c169.84,-99.58 228.14,-317.15 130.85,-488.29z"/>
   </g>
  </g>
  <g id="_2788414680080">
   <g>
    <path class="fil0" d="M16193.76 4624.5c-171.42,-100.53 -391.9,-43.05 -492.43,128.37l-719.67 1246.46c-31.53,54.6 -48.13,116.5 -48.22,179.56 -0.22,198.72 160.76,360.01 359.47,360.19 128.69,0.13 247.66,-68.46 311.98,-179.92l719.67 -1246.46c97.29,-171.14 39,-388.66 -130.8,-488.2z"/>
   </g>
  </g>
  <g id="_2788414680896">
   <g>
    <path class="fil0" d="M2518.83 13610.17l-2159 0c-198.72,0 -359.83,161.12 -359.83,359.83 0,198.71 161.12,359.83 359.83,359.83l2159 0c198.72,0 359.83,-161.12 359.83,-359.83 0,-198.71 -161.11,-359.83 -359.83,-359.83z"/>
   </g>
  </g>
  <g id="_2788414679936">
   <g>
    <path class="fil0" d="M10795 21886.33c-198.72,0 -359.83,161.12 -359.83,359.83l0 2159c0,198.72 161.12,359.83 359.83,359.83 198.71,0 359.83,-161.12 359.83,-359.83l0 -2159c0,-198.71 -161.11,-359.83 -359.83,-359.83z"/>
   </g>
  </g>
  <g id="_2788414678640">
   <g>
    <path class="fil0" d="M21230.17 13610.17l-2518.84 0c-198.72,0 -359.83,161.12 -359.83,359.83 0,198.71 161.12,359.83 359.83,359.83l2518.84 0c198.72,0 359.83,-161.12 359.83,-359.83 0,-198.71 -161.12,-359.83 -359.83,-359.83z"/>
   </g>
  </g>
  <g id="_2788414677584">
  </g>
  <g id="_2788414677488">
  </g>
  <g id="_2788414674176">
  </g>
  <g id="_2788414676336">
  </g>
  <g id="_2788414675760">
  </g>
  <g id="_2788414675280">
  </g>
  <g id="_2788414704992">
  </g>
  <g id="_2788414702112">
  </g>
  <g id="_2788414701872">
  </g>
  <g id="_2788414703456">
  </g>
  <g id="_2788414702256">
  </g>
  <g id="_2788414699808">
  </g>
  <g id="_2788414700864">
  </g>
  <g id="_2788414697984">
  </g>
  <g id="_2788414696784">
  </g>
 </g>
</svg>
